<svg version="1.2" xmlns="http://www.w3.org/2000/svg" viewBox="0 0 399 245" width="399" height="245">
	<title>beta-version (1)-svg</title>
	<defs>
		<linearGradient id="g1" x2="1" gradientUnits="userSpaceOnUse" gradientTransform="matrix(188.329,-165.807,178.91,203.212,114.307,210.582)">
			<stop offset="0" stop-color="#4e505d"/>
			<stop offset="1" stop-color="#7a859c"/>
		</linearGradient>
	</defs>
	<style>
		.s0 { fill: url(#g1) } 
		.s1 { fill: none;stroke: #7a859c;stroke-linejoin: round;stroke-width: 17;stroke-dasharray: 34 } 
		.s2 { fill: none } 
	</style>
	<path fill-rule="evenodd" class="s0" d="m75.5 44.8q17.7 0 25.6 5.3 7.9 5.4 7.9 17.1 0 6.3-2.9 10.6-2.9 4.4-8.4 6.5 7.1 2 10.9 7.5 3.9 5.5 3.9 13.6 0 12.3-8.3 18.3-8.3 6-25.3 6h-36.3v-84.9zm115 0v16.5h-37.3v15.8h35v16.6h-35v19.5h38.5v16.5h-60.4v-84.9zm88.7 0v16.5h-28.1v68.4h-21.9v-68.4h-28.2v-16.5zm49.6 0l31.4 84.9h-22l-5.3-15.5h-34.3l-5.4 15.5h-22l31.5-84.9zm-264.3 32.9h12.1q5.2 0 7.8-2.3 2.7-2.3 2.7-6.7 0-4.4-2.7-6.7-2.6-2.3-7.8-2.3h-12.1zm239.6 20.8h23.2l-11.6-33.8zm-239.6 16.3h12.9q6.6 0 9.9-2.7 3.4-2.8 3.4-8.5 0-5.5-3.3-8.2-3.3-2.8-10-2.8h-12.9zm184.2 26.4v10.2h-8v-10.2zm-110.8 24.3q5.8 6.3 5.8 17.3v3.9h-37q0.5 8.3 4.9 12.7 4.6 4.3 12.6 4.3 4.6 0 8.9-1.1 4.4-1.1 8.7-3.4v7.6q-4.3 1.8-8.9 2.8-4.5 1-9.2 1-11.7 0-18.6-6.9-6.8-6.8-6.8-18.4 0-12.1 6.4-19.1 6.6-7.1 17.6-7.1 9.9 0 15.6 6.4zm45.1-6.3q1 0.1 2.3 0.3v8.3q-1.3-0.8-3-1.1-1.5-0.4-3.5-0.4-6.8 0-10.5 4.4-3.6 4.5-3.6 12.8v25.8h-8.1v-49h8.1v7.6q2.5-4.5 6.6-6.6 4.1-2.2 9.9-2.2 0.8 0 1.8 0.1zm34.8 0.5q4 0.7 7.3 2v7.6q-3.4-1.7-7.1-2.6-3.7-0.9-7.6-0.9-6 0-9 1.9-3 1.8-3 5.5 0 2.8 2.2 4.4 2.1 1.6 8.6 3l2.7 0.6q8.6 1.9 12.2 5.2 3.6 3.4 3.6 9.4 0 6.8-5.4 10.8-5.4 4-14.8 4-4 0-8.3-0.8-4.2-0.8-8.9-2.3v-8.3q4.4 2.3 8.8 3.5 4.3 1.1 8.5 1.1 5.7 0 8.8-1.9 3.1-2 3.1-5.5 0-3.3-2.3-5.1-2.2-1.7-9.6-3.3l-2.8-0.7q-7.5-1.6-10.9-4.8-3.3-3.3-3.3-9 0-6.9 4.9-10.6 4.9-3.8 13.9-3.8 4.5 0 8.4 0.6zm83.2 6.2q6 6.8 6 18.9 0 12.1-6 18.9-6 6.9-16.5 6.9-10.6 0-16.6-6.9-5.9-6.8-5.9-18.9 0-12.1 5.9-18.9 6-6.8 16.6-6.8 10.5 0 16.5 6.8zm55.7-1.6q4.3 5.2 4.3 15.4v29.6h-8v-29.3q0-7-2.8-10.5-2.7-3.4-8.1-3.4-6.5 0-10.3 4.1-3.7 4.2-3.7 11.4v27.7h-8.1v-49h8.1v7.6q2.8-4.4 6.7-6.6 4-2.2 9.1-2.2 8.5 0 12.8 5.2zm-305.2-4l15.3 41.1 15.3-41.1h8.5l-18.3 49h-11l-18.4-49zm197.2 0v49h-8v-49zm-137.1 9.4q-4.1 3.8-4.7 10.7h28.7q0-6.6-3.7-10.5-3.6-4-9.5-4-6.8 0-10.8 3.8zm162.6 1.3q-3.7 5-3.7 13.8 0 8.8 3.7 13.9 3.7 5 10.3 5 6.4 0 10.2-5 3.7-5.1 3.7-13.9 0-8.7-3.7-13.8-3.8-5.1-10.2-5.1-6.5 0-10.3 5.1z"/>
	<g>
		<path class="s1" d="m19.8 22.6h365.4v207.8h-365.4z"/>
		<path fill-rule="evenodd" class="s2" d="m12.6-64.6h376.8c6.4 0 11.6 5.1 11.6 11.5v376.9c0 6.4-5.2 11.6-11.6 11.6h-376.8c-6.4 0-11.6-5.2-11.6-11.6v-376.9c0-6.4 5.2-11.5 11.6-11.5z"/>
	</g>
</svg>